<svg width="162" height="61" viewBox="0 0 162 61" fill="none" xmlns="http://www.w3.org/2000/svg">
<path d="M32.925 6.24613C37.3985 5.23122 41.8166 4.55086 46.2314 3.95216C51.3726 3.25908 56.5096 2.74135 61.7587 2.17268C67.88 1.51258 74.0575 0.881053 80.2713 0.470883C86.3743 0.069952 92.4947 -0.105561 98.5692 0.0649414C102.984 0.190252 107.399 0.421298 111.82 0.782275C118.213 1.30103 124.668 2.14024 130.977 3.55071C132.357 3.85449 133.727 4.1841 135.092 4.54072C141.01 6.08371 146.795 8.15572 152.333 10.677C155.429 12.0811 158.59 14.2814 160.265 17.7978C161.802 21.0938 161.771 24.6124 161.318 27.7544C160.983 30.0136 160.407 32.1713 159.723 34.2704C157.505 40.0752 152.226 41.9487 148.096 44.1578C143.199 46.5478 137.965 47.6757 132.803 48.4847C130.12 48.8979 127.437 49.2095 124.759 49.4919L124.735 49.4946C119.503 49.9323 114.221 49.9856 108.997 49.6091C108.678 49.5867 108.356 49.5626 108.037 49.5375C104.423 49.2501 100.85 48.8129 97.2748 48.3346C94.608 47.9762 91.9466 47.5915 89.2861 47.2039C88.9167 47.1499 88.5651 47.0711 88.3103 46.9832C88.0552 46.8951 87.9161 46.8053 87.9255 46.7313C87.9351 46.6572 88.0929 46.6036 88.3626 46.58C88.6318 46.5565 88.9926 46.5655 89.364 46.6024C92.0612 46.8715 94.7577 47.1375 97.4538 47.3757C100.447 47.6395 103.437 47.8712 106.428 48.0132C106.876 48.3506 107.507 48.6287 108.719 48.7936C108.817 48.807 108.923 48.8198 109.034 48.8316C109.619 48.8945 110.348 48.9303 110.909 48.8988C111.507 48.8653 111.963 48.7832 112.39 48.7029C112.84 48.6187 113.261 48.5366 113.807 48.5068C114.73 48.4558 115.609 48.3142 116.523 48.1528C116.857 48.0939 117.195 48.0322 117.543 47.9709C119.87 47.8321 122.191 47.6042 124.51 47.3135L124.481 47.3169C124.989 47.2408 125.497 47.1637 126.004 47.0851C127.103 46.972 128.111 46.8567 128.959 46.718C129.72 46.5936 130.405 46.421 131.083 46.2279C131.516 46.1472 131.947 46.0644 132.378 45.9787C135.156 45.4262 137.901 44.7688 140.544 43.8985C142.469 43.3801 144.463 42.7559 146.78 41.6123C146.993 41.5059 147.208 41.3977 147.428 41.2863C148.59 40.6964 149.731 40.1302 150.789 39.5448C152.35 38.6842 153.738 37.762 154.702 36.7567C155.345 36.0891 155.98 35.3819 156.451 34.5897C156.671 34.2201 156.855 33.8331 156.99 33.434C157.277 32.5787 157.51 31.7283 157.63 30.9139C157.747 30.1277 157.808 29.4024 157.843 28.7358C157.899 27.6756 157.891 26.7649 157.94 25.9571C158.032 24.4397 157.858 23.1538 157.583 22.1078C157.312 21.0763 156.953 20.273 156.639 19.569C156.571 19.4163 156.504 19.2665 156.437 19.1173C156.383 18.995 156.319 18.8537 156.241 18.696C155.838 17.8805 154.956 16.4942 152.877 15.3493C152.16 14.9559 151.426 14.6873 150.69 14.4625C150.668 14.4556 150.646 14.4486 150.624 14.4417C149.447 14.074 148.3 13.7347 147.14 13.2167C146.965 13.1387 146.795 13.034 146.638 12.9385C146.437 12.8168 146.263 12.7117 146.141 12.6984C145.781 12.6585 145.23 12.5584 144.628 12.4556C144.188 12.3804 143.72 12.304 143.284 12.2461C140.175 11.2086 137.018 10.3208 133.823 9.58228C132.524 9.28171 131.218 9.00573 129.905 8.75342C129.741 8.72192 129.575 8.69034 129.41 8.65927C128.682 8.3715 127.928 8.09911 127.125 7.85726C126.072 7.54099 124.685 7.26282 122.885 6.95203C121.559 6.72365 120.009 6.47841 118.199 6.19396C115.875 5.82805 113.48 5.60934 111.483 5.49608C110.601 5.44576 109.795 5.41514 109.105 5.39923C108.633 5.38853 108.153 5.37989 107.644 5.37286C105.709 5.35045 103.292 5.31727 98.7075 5.32453C94.3707 5.33694 90.6834 5.38864 87.917 5.45899C86.504 5.49498 85.3316 5.53547 84.4327 5.57961C83.2765 5.63635 81.9226 5.70583 80.5179 5.78971C80.0548 5.81733 79.5845 5.84648 79.1152 5.87683C76.152 6.06657 73.1725 6.31851 71.4893 6.50325C70.8902 6.56857 70.2613 6.64232 69.5837 6.72397C67.7038 6.95138 65.4358 7.23718 62.3105 7.62137C59.0317 8.0282 56.9939 8.25326 54.8778 8.4592C54.0147 8.54422 53.2459 8.53213 52.4495 8.5229C51.3216 8.50997 50.1428 8.50103 48.594 8.79629C48.2325 8.86532 47.8505 8.95393 47.4497 9.04801C47.3258 9.07712 47.2005 9.10667 47.0742 9.13622C46.4417 9.28336 45.7774 9.43012 45.0891 9.5246C44.7985 9.56455 44.5432 9.57578 44.289 9.58772C44.0084 9.60104 43.7371 9.61388 43.4342 9.66466C42.3015 9.8545 41.2053 10.0603 40.2317 10.2492C38.9764 10.4926 37.9311 10.7066 37.2728 10.8109C36.1061 10.9952 34.8465 11.3053 33.5872 11.635C32.624 11.887 31.6551 12.1519 30.7133 12.3807C28.9866 12.8009 26.8687 13.4016 24.6659 14.2015C23.3836 14.6661 22.0537 15.1548 20.7264 15.6624C19.3255 16.1995 18.1078 16.5481 16.5744 17.0254C15.6216 17.3243 14.5462 17.6706 13.2615 18.1806C12.5365 18.4694 11.965 18.8111 11.461 19.1306C10.9892 19.4291 10.5744 19.7083 10.1167 19.9376C9.71856 20.1374 9.42019 20.1949 9.14229 20.2493C8.8294 20.3137 8.53351 20.3776 8.17434 20.6636C7.98212 20.8175 7.78339 21.0359 7.56227 21.3041C7.47627 21.4091 7.3878 21.5209 7.29561 21.64C7.28645 21.6186 7.27466 21.6027 7.26477 21.5915C7.19527 21.5122 6.82547 21.7669 6.50283 22.0385C6.3718 22.1482 6.25056 22.2558 6.14495 22.3462C5.86042 22.5843 5.48965 23.0612 5.25886 23.5479C5.16432 23.744 5.08139 23.9393 5.01264 24.1212C4.90177 24.4156 4.78368 24.6722 4.66553 24.979C4.56191 25.2512 4.45732 25.5635 4.39316 25.9713C4.35725 26.2035 4.32009 26.382 4.29243 26.5314C4.27257 26.6396 4.25815 26.7326 4.25669 26.8185C4.25552 26.8931 4.28867 26.9519 4.32681 27.0165C4.35432 27.0631 4.38451 27.1127 4.40741 27.1746C4.46166 27.3224 4.49914 27.512 4.50903 27.6493C4.51335 27.7125 4.51083 27.764 4.50879 27.8153C4.50641 27.8747 4.50462 27.9349 4.51741 28.0142C4.53188 28.1032 4.55126 28.1906 4.57499 28.2775C4.66754 28.6183 4.7789 28.9393 4.89562 29.258C5.06541 29.7207 5.24433 30.1771 5.39637 30.6757C5.4444 30.833 5.48702 31.001 5.53202 31.1618C5.5788 31.3296 5.62886 31.4905 5.68499 31.6189C5.91361 32.1433 6.25783 32.545 6.59635 32.8661C6.822 33.0808 7.04595 33.2633 7.24228 33.4432C7.37569 33.5654 7.49863 33.6536 7.60994 33.7209C7.83594 33.867 8.01074 33.9475 8.15227 34.0115C8.27022 34.0654 8.36375 34.1063 8.45038 34.1668C8.52317 34.2302 8.59709 34.2948 8.66809 34.3568C8.73128 34.4168 8.7979 34.4795 8.86556 34.531C8.87062 34.5348 8.87573 34.5384 8.88074 34.5422C9.28187 34.8918 9.67659 35.2327 10.0777 35.563C10.9777 36.3041 11.9099 36.9935 12.9939 37.5851C13.228 37.7128 13.4798 37.8143 13.7403 37.9171C14.0565 38.0414 14.3864 38.1677 14.6923 38.3345C15.4303 38.7371 16.1655 39.1738 16.9036 39.5916C18.0109 40.2188 19.132 40.8058 20.2325 41.1558C20.5893 41.2688 20.9664 41.364 21.325 41.4489C21.5274 41.4973 21.7373 41.5477 21.9424 41.5995C21.8834 41.6295 21.845 41.6643 21.8078 41.6962C21.7319 41.7623 21.666 41.8187 21.4523 41.8038C20.9516 41.7707 20.3657 41.759 20.3633 41.9244C20.3628 41.9694 20.3328 42.0074 20.3015 42.0453C20.2239 42.1404 20.1403 42.2369 20.542 42.4584C20.8024 42.6039 21.5017 42.972 21.9956 43.0651C22.1041 43.0859 22.1803 43.0735 22.2651 43.0598C22.4163 43.0344 22.5884 43.0025 23.038 43.1485C23.1137 43.1731 23.1966 43.2006 23.2818 43.2291C23.6115 43.3391 23.9909 43.4636 24.1537 43.4563C24.2038 43.4541 24.2401 43.446 24.2662 43.4333C24.3324 43.3999 24.3317 43.3364 24.3273 43.2647C24.3271 43.2608 24.3268 43.2569 24.3265 43.253C24.3198 43.1628 24.3124 43.0614 24.4266 42.991C24.4841 42.9545 24.5728 42.9259 24.7101 42.911C24.7902 42.9024 24.9251 42.9382 25.028 42.9655C25.1004 42.9847 25.1563 42.9993 25.1654 42.9912C25.1755 42.9819 25.1616 42.9499 25.1438 42.9093C25.0789 42.7651 24.981 42.5199 25.7012 42.769C25.8967 42.8365 26.1238 42.9273 26.3175 43.005C26.607 43.121 26.8552 43.2192 26.8984 43.2C26.9146 43.1926 26.9277 43.1831 26.9394 43.1725C27.1708 43.258 27.4057 43.3442 27.644 43.4312C27.9286 43.5711 28.3665 43.7192 28.892 43.894C29.0213 43.9371 29.1584 43.9827 29.3019 44.0308C29.7612 44.195 30.2347 44.3623 30.6957 44.5239C31.0658 44.6641 31.4466 44.8176 31.8552 44.9953C32.6644 45.3483 33.353 45.7151 34.0293 46.0713C34.3108 46.2202 34.5963 46.3693 34.8847 46.5134C34.7667 46.4836 34.6543 46.4566 34.5691 46.4411C33.9823 46.3334 33.7222 46.3986 33.4712 46.4554C33.3063 46.4937 33.1508 46.5298 32.9201 46.5114C32.4996 46.4782 32.5019 46.5967 32.5066 46.6855C32.5087 46.7315 32.5095 46.7688 32.4499 46.7718C32.4019 46.774 32.3005 46.7498 32.1964 46.725C32.1057 46.7033 32.0122 46.681 31.95 46.6751C31.1968 46.6043 31.3789 46.7635 31.6425 46.9953C31.7884 47.1231 31.9609 47.2732 32.0159 47.4192C32.0559 47.5677 32.0162 47.595 31.6288 47.5241C31.8971 47.6779 32.1751 47.8341 32.4413 47.9859C32.5559 48.0181 32.6543 48.0075 32.796 47.9829C33.0527 47.9402 33.7646 48.1192 34.3325 48.2592C34.5904 48.3227 34.8174 48.378 34.949 48.3994C35.6517 48.5132 35.4916 48.3233 35.356 48.1584C35.2799 48.067 35.2103 47.9827 35.2919 47.9592C35.3267 47.9491 35.2909 47.9176 35.2551 47.8856C35.2274 47.8609 35.199 47.8357 35.2024 47.8198C35.2283 47.7045 35.6503 47.7422 36.0374 47.7742C36.2601 47.793 36.4743 47.8107 36.5993 47.7991C36.6374 47.7955 36.6688 47.7897 36.698 47.7836C36.7402 47.7746 36.7813 47.7663 36.8416 47.7666C36.979 47.7675 37.2474 47.8203 37.5447 47.8785C37.6971 47.9084 37.8573 47.9397 38.006 47.9647C38.2002 47.9974 38.2813 47.9725 38.3666 47.9466C38.427 47.9284 38.49 47.9098 38.5961 47.9102C38.7888 47.9112 39.1519 47.9963 39.4867 48.0736C39.6331 48.1074 39.7753 48.14 39.8965 48.1641C39.9458 48.174 39.9712 48.1728 39.9793 48.1637C40.533 48.2824 41.0665 48.3923 41.5817 48.496C44.1738 49.0153 46.4211 49.4389 49.7036 50.3378C50.3274 50.5078 51.0006 50.6593 51.6855 50.7964C53.8537 51.3353 56.0341 51.8441 58.2206 52.3208C58.6139 52.5007 59.0978 52.6814 59.681 52.8607C59.7096 52.8696 59.7384 52.8784 59.7674 52.8872C60.9246 53.2379 62.1472 53.4872 63.583 53.7676C64.6479 53.9752 65.8318 54.2002 67.2109 54.4944C69.5254 54.9879 71.9147 55.4497 74.6234 55.8798C77.3232 56.3094 80.4173 56.7439 82.6162 57.0236C83.8112 57.1763 85.0605 57.419 86.225 57.6414C87.8654 57.9548 89.3301 58.2273 90.2579 58.165C90.5508 58.1447 90.8395 58.0855 91.1231 58.0281C91.3243 57.9872 91.5217 57.9473 91.7127 57.9221C92.2008 57.9879 92.7131 58.0556 93.2032 58.1206C94.0857 58.3207 95.4392 58.5749 96.7908 58.5877C97.2983 58.6529 97.8231 58.7191 98.3122 58.7817C99.3977 58.9185 100.462 59.0517 101.525 59.1834C101.883 59.2276 102.225 59.27 102.582 59.3138C102.585 59.3143 102.588 59.3147 102.592 59.3152C102.86 59.348 103.123 59.3803 103.379 59.4119C103.844 59.4684 104.275 59.5216 104.729 59.5768C105.025 59.6131 105.335 59.6507 105.634 59.6871C106.406 59.7805 107.168 59.8724 107.932 59.9634C108.34 60.012 108.747 60.06 109.146 60.107C109.81 60.1847 110.468 60.2608 111.134 60.3349C112.206 60.4522 113.271 60.574 114.329 60.6434C114.502 60.6541 114.667 60.6739 114.79 60.7015C114.913 60.7291 114.983 60.763 114.982 60.7982C114.982 60.8334 114.912 60.8678 114.788 60.8945C114.663 60.9211 114.495 60.9366 114.319 60.9371C113.244 60.9352 112.171 60.8803 111.09 60.8294C110.42 60.7964 109.757 60.7614 109.089 60.7244C108.687 60.7024 108.278 60.679 107.867 60.6553C107.098 60.611 106.33 60.5654 105.553 60.5181C105.252 60.4998 104.94 60.4805 104.642 60.4624C104.187 60.4341 103.756 60.4077 103.29 60.3779C103.028 60.3616 102.76 60.3446 102.486 60.3271C102.482 60.3268 102.477 60.3265 102.473 60.3262C102.117 60.3035 101.775 60.2819 101.416 60.2586C100.346 60.1894 99.2749 60.1184 98.1809 60.0426C97.6267 60.0053 97.0226 59.9622 96.4504 59.9216C96.1289 59.8988 95.7922 59.8743 95.4821 59.8522C95.3097 59.8396 95.1339 59.8267 94.9561 59.8135C90.8791 59.5139 86.8538 59.183 82.7785 58.7966C78.7213 58.4121 74.6593 57.9778 70.6137 57.4762C66.7743 56.9994 62.9457 56.4629 59.1227 55.8293C58.9062 55.7934 58.6902 55.7572 58.4749 55.7208C46.4948 53.6973 34.6337 50.6708 23.0834 46.6949C16.7185 44.4752 10.1299 41.8023 4.67433 37.1265C2.11737 35.0819 0.979315 31.7151 0.389198 29.3932C-0.367326 26.8071 0.0358391 23.8786 1.10884 21.6066C2.68243 18.3074 5.37608 16.5362 7.79723 15.1143C11.3357 13.124 15.0059 11.7986 18.5429 10.5306C20.0197 10.0079 21.4793 9.50772 22.9289 9.00958C25.0845 8.27085 27.2437 7.65147 29.4348 7.08852C30.5703 6.797 31.7295 6.51805 32.925 6.24613Z" fill="#FFC4C4"/>
</svg>
