<svg preserveAspectRatio="none" width="100%" height="100%" overflow="visible" style="display: block;" viewBox="0 0 48 48" fill="none" xmlns="http://www.w3.org/2000/svg">
<g id="proicons:tiktok">
<path id="Vector" d="M40.4 20.2C40.4 20.64 40.04 21.002 39.6 20.98C37.2491 20.8621 34.9532 20.227 32.876 19.12C32.314 18.82 31.6 19.21 31.6 19.848V31C31.5999 33.3393 30.916 35.6275 29.6326 37.5832C28.3491 39.539 26.522 41.0769 24.376 42.0079C22.23 42.939 19.8586 43.2224 17.5536 42.8235C15.2486 42.4246 13.1105 41.3607 11.4022 39.7626C9.69387 38.1646 8.4899 36.102 7.93833 33.8287C7.38677 31.5554 7.51168 29.1705 8.29769 26.9672C9.08371 24.7639 10.4966 22.8385 12.3625 21.4276C14.2284 20.0167 16.4659 19.182 18.8 19.026C18.9043 19.0205 19.0086 19.0365 19.1065 19.0731C19.2043 19.1097 19.2935 19.1661 19.3686 19.2387C19.4437 19.3114 19.503 19.3987 19.5428 19.4953C19.5826 19.5918 19.6021 19.6956 19.6 19.8V25.4C19.6 25.84 19.24 26.194 18.804 26.266C17.9014 26.4178 17.061 26.8245 16.3818 27.4382C15.7027 28.0518 15.2132 28.8469 14.9711 29.7295C14.7289 30.6122 14.7441 31.5458 15.015 32.4201C15.2859 33.2944 15.8011 34.073 16.4999 34.6641C17.1987 35.2553 18.0519 35.6343 18.959 35.7565C19.8661 35.8788 20.7893 35.7391 21.6196 35.354C22.45 34.9689 23.1529 34.3544 23.6455 33.5829C24.1381 32.8115 24.3999 31.9153 24.4 31V5.8C24.4 5.58783 24.4843 5.38434 24.6343 5.23431C24.7843 5.08429 24.9878 5 25.2 5H30.8C31.0139 5.00545 31.2181 5.09045 31.3727 5.23838C31.5272 5.38631 31.6211 5.58655 31.636 5.8C31.823 7.84945 32.7224 9.76852 34.1778 11.2235C35.6332 12.6786 37.5525 13.5775 39.602 13.764C40.042 13.804 40.402 14.158 40.402 14.6L40.4 20.2Z" stroke="var(--stroke-0, #FF9696)" stroke-width="1.5" stroke-linecap="round" stroke-linejoin="round"/>
</g>
</svg>
