<svg width="24" height="24" viewBox="0 0 24 24" fill="none" xmlns="http://www.w3.org/2000/svg">
<rect width="24" height="24" fill="#1E1E1E"/>
<g id="Contact Us Page">
<rect width="1440" height="2646" transform="translate(-120 -1077)" fill="#FFF8F8"/>
<g id="Frame 162602">
<g id="Frame 162595">
<g id="Frame 162592">
<g id="vuesax/linear/location">
<g id="vuesax/linear/location_2">
<g id="location">
<path id="Vector" d="M12 13.4299C13.7231 13.4299 15.12 12.0331 15.12 10.3099C15.12 8.58681 13.7231 7.18994 12 7.18994C10.2769 7.18994 8.88 8.58681 8.88 10.3099C8.88 12.0331 10.2769 13.4299 12 13.4299Z" stroke="#FF9696" stroke-width="1.5"/>
<path id="Vector_2" d="M3.62 8.49C5.59 -0.169998 18.42 -0.159997 20.38 8.5C21.53 13.58 18.37 17.88 15.6 20.54C13.59 22.48 10.41 22.48 8.39 20.54C5.63 17.88 2.47 13.57 3.62 8.49Z" stroke="#FF9696" stroke-width="1.5"/>
</g>
</g>
</g>
</g>
</g>
</g>
</g>
</svg>
