<svg preserveAspectRatio="none" width="100%" height="100%" overflow="visible" style="display: block;" viewBox="0 0 41.5 29.5" fill="none" xmlns="http://www.w3.org/2000/svg">
<g id="Group">
<path id="Vector" d="M0.750001 14.75C0.750001 8.15 0.750001 4.85 3.678 2.8C6.61 0.75 11.322 0.75 20.75 0.75C30.178 0.75 34.892 0.75 37.82 2.8C40.748 4.85 40.75 8.15 40.75 14.75C40.75 21.35 40.75 24.65 37.82 26.7C34.894 28.75 30.178 28.75 20.75 28.75C11.322 28.75 6.608 28.75 3.678 26.7C0.748001 24.65 0.750001 21.35 0.750001 14.75Z" stroke="var(--stroke-0, #FF9696)" stroke-width="1.5" stroke-linecap="round" stroke-linejoin="round"/>
<path id="Vector_2" d="M17.75 10.566V18.934C17.7505 19.0417 17.7723 19.1482 17.8139 19.2475C17.8556 19.3468 17.9165 19.4369 17.993 19.5127C18.0695 19.5884 18.1602 19.6484 18.2599 19.6891C18.3596 19.7298 18.4663 19.7505 18.574 19.75C18.7363 19.752 18.8953 19.7045 19.03 19.614L25.38 15.466C25.493 15.3929 25.586 15.2927 25.6505 15.1746C25.7151 15.0565 25.7492 14.9242 25.7498 14.7896C25.7504 14.655 25.7175 14.5224 25.6539 14.4038C25.5904 14.2851 25.4983 14.1841 25.386 14.11L19.036 9.89C18.8545 9.76848 18.6323 9.72343 18.4178 9.76461C18.2033 9.8058 18.0136 9.9299 17.89 10.11C17.798 10.2442 17.7492 10.4033 17.75 10.566Z" stroke="var(--stroke-0, #FF9696)" stroke-width="1.5" stroke-linecap="round" stroke-linejoin="round"/>
</g>
</svg>
